<?xml version="1.0" encoding="UTF-8"?><svg id="_Слой_1" xmlns="http://www.w3.org/2000/svg" viewBox="0 0 200 200"><defs><style>.cls-1{fill:none;}.cls-2{fill:#df7980;}.cls-3{fill:#6767a5;}</style></defs><path class="cls-3" d="M139.13,183.19c-.55,1.41-.04,2.96.43,3.56l5.69-3.33c2.98-4.85-3-8.39-6.12-.23Z"/><path class="cls-1" d="M159.57,165.8c0-.06,0-.12,0-.19,0,.06,0,.13,0,.19Z"/><path class="cls-1" d="M164.75,166.22c.02.44.02.77.02.9,0-.13,0-.46-.02-.9Z"/><path class="cls-1" d="M159.76,169c.19,1.09.52,1.94,1,2.31,0,0,0,0,0,0-.47-.37-.81-1.22-1-2.31Z"/><path class="cls-1" d="M159.6,165.24s0-.09.01-.14c0,.05,0,.09-.01.14Z"/><path class="cls-1" d="M145.25,183.42c2.97-4.85-3-8.39-6.12-.23-.55,1.41-.04,2.96.42,3.55,0,0,0,0,0,0l5.69-3.32s0,0,0,0Z"/><path class="cls-1" d="M164.77,167.19h0s-1.92,2.33-4.01,4.12c0,0,0,0,0,0,2.09-1.78,4.01-4.12,4.01-4.12Z"/><path class="cls-1" d="M175.27,152.65s-.22-2.49-.59-3.93c-.71-2.81-2-3.28-3.52-.81-2.2,3.57-2.68,8.8-.57,11.59,0,0,0,0,0,0l4.67-6.85s0,0,0,0Z"/><path class="cls-1" d="M166.66,167.88s-2.99,3.21-4.44,4.66c0,0,0,0,0,0,6.28,3.47,21.89-4.09,6.3-4.66-.63-.02-1.86,0-1.86,0Z"/><path class="cls-1" d="M159.63,168c-.01-.16-.03-.32-.04-.48,0,.16.02.32.04.48Z"/><path class="cls-1" d="M156.56,177.72c-1.31,1.09-2.65,2.14-4.02,3.16,0,0,0,0,0,0,1,1.34,4.39,2.05,7.25,2.04,3.7,0,6.51-1.21,2.07-3.76,0,0,0,0,0,0-1.63-.69-3.7-1.01-5.3-1.44,0,0,0,0,0,0Z"/><path class="cls-1" d="M155.65,176.05c.06-14.63-10.31-4.3-4.91,3.89,0,0,0,0,0,0,1.69-1.23,3.32-2.54,4.9-3.89,0,0,0,0,0,0Z"/><path class="cls-1" d="M159.76,168.99c-.05-.3-.1-.62-.13-.96.03.33.07.65.13.96Z"/><path class="cls-1" d="M159.56,166.92c0-.13,0-.27,0-.4,0,.13,0,.27,0,.4Z"/><polygon class="cls-1" points="172.02 160.91 172.02 160.91 172.03 160.9 172.02 160.91"/><path class="cls-1" d="M159.56,166.37c0-.09,0-.18,0-.27,0,.09,0,.18,0,.27Z"/><path class="cls-1" d="M159.59,167.47c0-.16-.02-.32-.02-.48,0,.16.01.32.02.48Z"/><path class="cls-1" d="M182.23,155.04c1.72-.08,3.01.22,2.71,1.35-.74,2.83-5.17,5.1-9.19,5.2,4.02-.1,8.45-2.37,9.19-5.2.3-1.13-.99-1.42-2.71-1.35Z"/><path class="cls-1" d="M130.22,42.91c-.55-.33-1.88-1.11-2.64-1.52.89.49,1.77,1,2.64,1.52Z"/><path class="cls-1" d="M116.63,29.06c-.5-.57-1.16-1.02-1.77-1.47,0,0,0,0-.01,0-.67-.5-1.61.07-1.53.91,0,.1.04.19.06.29.21,1.44,1.79,5.03,4.14,7.86,1.24.48,2.48,1,3.7,1.55.19-.96-.14-1.89-.49-2.78-.93-2.39-2.41-4.44-4.09-6.35Z"/><path class="cls-1" d="M127.69,35.95c.18.18.37.4.57.65-.2-.25-.39-.47-.57-.65Z"/><path class="cls-1" d="M123.01,44.55c-.55.31-1.28.79-1.23,1.31,0,.55.74.84,1.3.9,1.83.21,3.61.1,5.28-.81.56-.3.99-.58,1.31-.86-1.12-.63-2.24-1.25-3.39-1.83-1.3.2-2.24.71-3.28,1.29Z"/><path class="cls-1" d="M130.47,43.06s0,0,0,0c0-.03,0-.05,0-.08,0,.04,0,.07,0,.08Z"/><path class="cls-1" d="M66.88,85.5c-12.56-3.6-19.71,10.68-9.08,16.93.38.22.83-.16.64-.54-2.25-4.46-3.55-13.19,8.41-15.57.45-.09.48-.7.04-.82Z"/><path class="cls-1" d="M128.55,37c.6.85,1.19,2.01,1.56,3.5-.37-1.49-.96-2.65-1.56-3.5Z"/><path class="cls-1" d="M126.96,98.94c.45-.09.48-.7.04-.82-12.56-3.6-19.71,10.68-9.08,16.93.38.22.83-.16.64-.54-2.25-4.46-3.55-13.19,8.41-15.57Z"/><path class="cls-1" d="M140.79,188.31s0,0,0,0c3.47,3.52,9.45,2.65,10.3,2.26,5.16-2.39-4.44-5.45-4.44-5.45,0,0-2.33.96-5.86,3.19Z"/><path class="cls-1" d="M97.11,41.24c-.16.38-.28.8-.33,1.21-.09.78.42,1.34,1.2,1.44.94.12,1.84-.14,2.62-.58,2.34-1.32,4.42-2.95,5.6-5.5.29-.63.59-1.23.6-1.9-1.41-.32-2.84-.53-4.28-.67-2.37,1.46-4.31,3.36-5.42,6Z"/><path d="M109.25,130.56c19.78,6.53,43.48,3.38,59.32-10.76.21-.19.23-.52.04-.74-.19-.22-.52-.24-.74-.05-3.86,3.4-8.29,6.11-12.99,8.15-14.1,6.02-30.52,6.5-44.95,1.41-1.32-.45-1.97,1.52-.68,1.99Z"/><path d="M110.58,133.84c-1.31-.5-2.03,1.44-.77,1.95,19.36,7.77,41.29,8.93,59.73-1.98.65-.38.07-1.33-.55-.99-4.44,2.45-9.16,4.37-14.04,5.62-14.77,3.85-30.43,1.13-44.37-4.6Z"/><path d="M107.38,139.51c7.81,4.51,16.24,8.65,25.28,9.9,7.86,1.19,15.95.7,23.7-.9,0,0,3.32-.7,3.32-.7.63-.13.42-1.09-.19-.97-1.13.21-3.86.73-4.97.94-18.13,2.79-30.65-.5-46.13-10.11-1.23-.68-2.2,1.16-1.01,1.84Z"/><path d="M135.8,110.5c1.71-5.77-2.43-11.92-9.25-13.72s-13.73,1.42-15.44,7.19c-1.71,5.77,2.43,11.92,9.25,13.72,6.82,1.8,13.73-1.42,15.44-7.19ZM126.99,101.13c-2.31.76-8.41,3.66-5.72,12.71.08.27-.28.45-.47.24-6.65-7.33,1.92-14.44,6.15-13.53.31.07.33.48.03.58ZM117.91,115.05c-10.62-6.25-3.48-20.53,9.08-16.93.44.13.41.73-.04.82-11.95,2.38-10.66,11.1-8.41,15.57.19.38-.26.77-.64.54Z"/><path class="cls-3" d="M126.96,100.56c-4.23-.91-12.8,6.19-6.15,13.53.19.21.55.03.47-.24-2.69-9.05,3.4-11.95,5.72-12.71.3-.1.28-.51-.03-.58Z"/><path d="M66.43,84.16c-6.82-1.8-13.73,1.42-15.44,7.19-1.71,5.77,2.43,11.92,9.25,13.72s13.73-1.42,15.44-7.19c1.71-5.77-2.43-11.92-9.25-13.72ZM66.87,88.51c-2.31.76-8.41,3.66-5.72,12.71.08.27-.28.45-.47.24-6.65-7.33,1.92-14.44,6.15-13.53.31.07.33.48.03.58ZM66.84,86.32c-11.95,2.38-10.66,11.1-8.41,15.57.19.38-.26.77-.64.54-10.62-6.25-3.48-20.53,9.08-16.93.44.13.41.73-.04.82Z"/><path class="cls-3" d="M66.84,87.94c-4.23-.91-12.8,6.19-6.15,13.53.19.21.55.03.47-.24-2.69-9.05,3.4-11.95,5.72-12.71.3-.1.28-.51-.03-.58Z"/><path d="M76.4,113.91c.88.69,1.85,1.2,2.94,1.56,2.21.74,2.67.89,2.47,3.41-.07.92-.01,1.85.57,2.64,1.19,1.61,1,3.31.27,5-.45,1.03-.97,2.04-1.56,2.99-2.29,3.65-6.88,6.84-8.99,7.97-3.15,1.68-6.44,2.67-10.02,2.53-.84-.03-1.67-.06-2.51-.09-4.81-.2-8.73-2.17-11.74-5.97-.06-.08-.23-.06-.44-.11-.22.9.01,1.67.63,2.3,1.09,1.09,2.16,2.21,3.56,2.91,2.63,1.32,5.28,2.36,8.34,2.38,2.97.02,5.85-.2,8.68-1.05,6.26-1.89,13.19-7.75,14.64-9.88.5-.74,1.03-1.47,1.69-2.4.29.8.53,1.36.7,1.94,1.19,4.02,3.05,7.71,5.37,11.17,2.91,4.35,6.35,8.2,10.42,11.5,1.91,1.55,3.96,2.87,6.05,4.17,2.99,1.86,6.18,3.23,9.52,4.3,3.05.98,6.21.81,9.34.93.21,0,.42-.04.62-.08.57-.11.94-.52.91-.98-.04-.56-.54-1.08-1.08-1.1-.28,0-.55.07-.83.07-1.18,0-2.38.1-3.54-.05-4.17-.54-8.18-1.62-11.95-3.62-2.87-1.52-5.48-3.38-7.98-5.41-3.22-2.61-6.12-5.57-8.62-8.9-1.94-2.59-3.76-5.27-4.91-8.33-.67-1.77-1.14-3.62-1.67-5.44-.09-.33-.08-.7-.05-1.05.25-2.95,1.53-5.36,3.75-7.3,1.05-.91,2.24-1.41,3.61-1.47.91-.04,1.81-.08,2.72-.08,1.63-.22,2.29-.44,3.61-1.62,1.72-1.54,2.16-3.76,1.26-5.91-.41-.96-.93-1.93-1.61-2.71-2.02-2.31-4.47-4.08-7.41-4.96-1.87-.56-3.8-.93-5.74-1.16-2.14-.25-5.52-.13-10.05,1.7,1.98-1.99,4.27-2.94,6.81-3.56,2.95-.71,5.08-.76,7.75-.28,3.78.68,7.1,2.52,9.93,5.15,1.23,1.14,2.46,2.3,3.31,3.79.21.37.58.31.91-.12-.39-1.13-1.24-2.02-1.99-2.95-.81-1.01-1.7-1.94-2.67-2.8-.85-.75-1.75-1.46-2.7-2.08-.99-.65-1.25-1.04-6.43-3.09.8-.43,1.45-.69,2.01-1.1,6.3-4.53,7.07-9.04,7.4-11.99.27-2.47.45-4.91-.28-7.33-.07-.23-.27-.43-.41-.64-.11.04-.21.08-.32.12-.54,19.71-11.77,19.68-16.49,21.17-1.46.46-3.02,1.05-4.27,1.95-1.97,1.42-4.4,3.7-5.39,5.81-1.29,2.72-.8,6.07,1.86,8.15ZM76.51,107.91c.3-.46.68-.91,1.11-1.24,2.22-1.69,4.66-2.81,7.43-2.65,2.29-.03,7.34.85,11.43,3.83,1.25.91,2.38,1.96,3.21,3.28.53.84,1,1.7.44,2.75-.63,1.19-1.51,2.06-2.88,2.15-.82.06-1.67-.05-2.49-.19-2.71-.48-4.76.44-6.15,2.85-.32.55-.57,1.13-.91,1.66-.43.69-1.03,1.19-1.89,1.05-1-.16-1.78-.98-1.87-2-.07-.77-.02-1.54.01-2.32.08-2.16-.79-3.36-2.9-3.99-.67-.2-1.34-.39-2-.6-.95-.31-1.74-.87-2.37-1.66-.77-.97-.85-1.9-.18-2.91Z"/><path class="cls-2" d="M79.06,112.48c.66.22,1.33.41,2,.6,2.11.63,2.98,1.83,2.9,3.99-.03.77-.08,1.55-.01,2.32.09,1.02.87,1.84,1.87,2,.87.14,1.46-.37,1.89-1.05.34-.53.59-1.11.91-1.66,1.39-2.4,3.44-3.33,6.15-2.85.82.14,1.66.25,2.49.19,1.37-.09,2.25-.96,2.88-2.15.56-1.05.09-1.91-.44-2.75-.83-1.33-1.96-2.37-3.21-3.28-4.09-2.98-9.14-3.86-11.43-3.83-2.77-.15-5.21.96-7.43,2.65-.43.33-.81.78-1.11,1.24-.67,1.01-.59,1.94.18,2.91.63.79,1.41,1.35,2.37,1.66ZM78.2,107.41c2.25-2.01,11.22-4.98,19.6,3.61.38.39.09.81-.39.5-7.97-5.15-12.11-4.64-18.95-3.56-.32.05-.49-.34-.26-.56Z"/><path class="cls-3" d="M164.77,167.19s0-.03,0-.07c0-.13,0-.46-.02-.9-.06-1.44-.27-4.14-1.02-5.84-.18-.4-.48-.75-.88-.94-1.9-.92-3.01,2.31-3.24,5.66,0,.05,0,.09-.01.14,0,.13-.01.25-.02.38,0,.06,0,.13,0,.19,0,.1,0,.19,0,.29,0,.09,0,.18,0,.27,0,.05,0,.1,0,.16,0,.13,0,.27,0,.4,0,.02,0,.05,0,.07,0,.16.01.32.02.48,0,.02,0,.03,0,.05,0,.16.02.32.04.48,0,.01,0,.02,0,.03.03.33.07.65.13.96,0,0,0,0,0,.01.19,1.09.52,1.94,1,2.31,0,0,0,0,0,0,2.09-1.79,4.01-4.12,4.01-4.12Z"/><path class="cls-3" d="M184.94,156.39c.3-1.13-.99-1.42-2.71-1.35-2.87.13-6.95,1.27-6.96,1.27,0,0-2.05,2.96-3.24,4.58,0,0,0,0,0,0,0,0,0,0,0,0,0,0,0,0,0,0,1.09.51,2.39.72,3.72.68,4.02-.1,8.45-2.37,9.19-5.2Z"/><path class="cls-3" d="M107.42,28.5c-1.83-3.96-4.75-6.91-8.46-9.08-.79-.46-1.66-.72-2.6-.67-1.18.05-1.71.58-1.8,1.93-.02.35,0,.71.04,1.06.17,1.18.54,2.3,1.17,3.31,2.19,3.49,4.78,6.54,8.7,8.1.97.2,1.86.32,2.72.46.14-.25.94-1.67.82-3.18-.05-.67-.31-1.33-.59-1.93Z"/><path class="cls-3" d="M114.86,38.36c-1.29.42-3.71,2.33-4.13,2.76-.84.87-.64,1.97.5,2.26.69.17,1.41.22,2.12.23,1.9.02,3.77-.49,5.4-1.48.45-.27.92-.53,1.32-.83.01,0,.02-.02.03-.02.24-.19.45-.39.62-.63-.51-.22-1.02-.45-1.53-.66-1.2-.5-3.12-1.18-4.33-1.61Z"/><path class="cls-3" d="M130.11,40.5c-.37-1.49-.96-2.65-1.56-3.5-.1-.14-.2-.28-.3-.4-.2-.25-.39-.47-.57-.65-.36-.37-.67-.6-.86-.72-.29-.17-.69-.04-.77.3-.1.4,0,.8.07,1.07.29,1.23.65,2.44,1.02,3.64.12.39.29.77.44,1.15.75.42,2.08,1.2,2.64,1.52.08.05.16.09.23.13,0,0,.02,0,.02.01,0,0,0-.04,0-.08-.04-.91-.17-1.74-.35-2.49Z"/><path class="cls-3" d="M90.35,33.14c-1.49.38-2.98.77-4.2,1.78-.37.31-.74.64-1.04,1.03-.46.6-.24,1.4.44,1.79.7.4,1.42.46,2.22.33,2.19-.36,4.29-.94,6.13-2.24-.14-.12-.26-.27-.31-.42-.09-.27.02-.74.22-.94.18-.17.39-.31.61-.44-.16-.1-.31-.21-.47-.31-1.11-.73-2.32-.91-3.6-.59Z"/><path class="cls-1" d="M155.65,176.05c.06-14.63-10.31-4.3-4.91,3.89,0,0,0,0,0,0,1.69-1.23,3.32-2.54,4.9-3.89,0,0,0,0,0,0Z"/><path class="cls-1" d="M163.44,182.31c-.77.4-2.08.6-3.55.62,1.47-.01,2.78-.21,3.55-.62Z"/><path class="cls-1" d="M159.79,182.92s0,0,0,0c-.83,0-1.71-.06-2.56-.17.85.12,1.72.18,2.55.17Z"/><path class="cls-1" d="M140.79,188.31s0,0,0,0c3.47,3.52,9.45,2.65,10.3,2.26,5.16-2.39-4.44-5.45-4.44-5.45,0,0-2.33.96-5.86,3.19Z"/><path class="cls-1" d="M145.25,183.42c2.97-4.85-3-8.39-6.12-.23-.55,1.41-.04,2.96.42,3.55,0,0,0,0,0,0l5.69-3.32s0,0,0,0Z"/><path class="cls-1" d="M180.23,144.69c.92.51,2.61-.81,3.77-2.94,1.16-2.14,1.45-4.42.52-4.93-.92-.51-2.71.94-3.87,3.08-1.16,2.14-1.35,4.28-.42,4.79Z"/><path class="cls-1" d="M175.27,152.65s-.22-2.49-.59-3.93c-.71-2.81-2-3.28-3.52-.81-2.2,3.57-2.68,8.8-.57,11.59,0,0,0,0,0,0l4.67-6.85s0,0,0,0Z"/><path class="cls-1" d="M172.03,160.9s0,0,0,0c0,0,0,0,0,0,0,0,0,0,0,0,0,0,0,0,0,0,1.09.51,2.39.72,3.72.68,4.02-.1,8.45-2.37,9.19-5.2.3-1.13-.99-1.42-2.71-1.35-2.87.13-6.95,1.27-6.96,1.27,0,0-2.05,2.96-3.24,4.58Z"/><path class="cls-1" d="M166.66,167.88s-2.99,3.21-4.44,4.66c0,0,0,0,0,0,6.28,3.47,21.89-4.09,6.3-4.66-.63-.02-1.86,0-1.86,0Z"/><path class="cls-1" d="M164.77,167.19h0s0-.03,0-.07c0-.13,0-.46-.02-.9-.06-1.44-.27-4.14-1.02-5.84-.18-.4-.48-.75-.88-.94-1.9-.92-3.01,2.31-3.24,5.66,0,.05,0,.09-.01.14,0,.13-.01.25-.02.38,0,.06,0,.13,0,.19,0,.1,0,.19,0,.29,0,.09,0,.18,0,.27,0,.05,0,.1,0,.16,0,.13,0,.27,0,.4,0,.02,0,.05,0,.07,0,.16.01.32.02.48,0,.02,0,.03,0,.05,0,.16.02.32.04.48,0,.01,0,.02,0,.03.03.33.07.65.13.96,0,0,0,0,0,.01.19,1.09.52,1.94,1,2.31,0,0,0,0,0,0,0,0,0,0,0,0,0,0,0,0,0,0,2.09-1.78,4.01-4.12,4.01-4.12Z"/><path class="cls-3" d="M161.86,179.16s0,0,0,0c-1.63-.69-3.7-1.01-5.3-1.44,0,0,0,0,0,0-1.31,1.09-2.65,2.14-4.02,3.16,0,0,0,0,0,0,.68.91,2.47,1.53,4.44,1.83.02,0,.05,0,.07.01.06,0,.13.02.19.03.85.12,1.73.18,2.56.17.03,0,.07,0,.1,0,1.47-.01,2.78-.22,3.55-.62,1.13-.6,1.04-1.63-1.59-3.15Z"/><path d="M170.66,162.76c8.72,3.29,23.75-6.22,14.38-9.61h0c-3.12-.74-6.03.25-8.92,1.47,0,0,0,0,0,0,1.62-2.74,3.11-5.57,4.54-8.42.01-.01.03-.02.05-.03,4.37-.8,6.31-7.93,5.31-9.64-2.76-4.7-9.41,5.79-7.29,8.95,0,0,0,0,0,0-.73,1.63-1.57,3.2-2.41,4.76,0,0,0,0,0,0-1.84-15.53-12.3,2.82-6.81,10.8-.95,1.29-1.92,2.57-2.94,3.82,0,0,0,0,0,0-1.56-16.52-13.19-2.52-7.19,7.81,0,0,0,0,0,0-.75.72-1.52,1.43-2.3,2.13,0,0,0,0,0,0,.78-4.88-4.14-11.34-8.05-5.6-2.18,3.44-2.38,8.67.17,11.85,0,0,0,0,0,0l-2.06,1.4s0,0,0,0c1.43-12.19-13.22-1.92-9.09,5.03,0,0,0,0,0,0-21.76,10.67-44.66,9.27-67.33,3.08,0,0,0,0,0,0-1.28-1.37-3.05,1.26-3.92,2.31,0,0,0,0,0,0-9.95,13.14-10.77-.42-13.54-9.09-.89-3.74-4.53-2.86-6.06-.2-8.19,13.34-14.19,7.04-14.31-2.5-.41-2.07,1.25-13.41-1.8-10.55-11.36,16.45-18.06,7.88-15.71-8.49.33-2.73.69-5.45,2.58-7.68.41-.49.64-1.12.67-1.79.02-.44-.15-.88-.51-1.12-1.65-1.09-2.44,5.2-4.7,4.56-12.64-3.28-.48-26.4,5.52-32.01,1.57-1.6,3.94-2.46,5.08-4.44.42-1.62-1.57-1.3-2.35-.56,0,0,0,0,0,0-5.5,6.84-21.16,11.14-15.18-2.73,0,0,0,0,0,0,4.08-6.63,9.76-12.28,16.42-16.25.02-.02.04-.03.06-.04.97-.77,2.41-1.35,3.11-2.39.38-.56,0-1.35-.68-1.34-.37,0-.72.1-1.06.19-6.69,1.16-14.55,5.21-20.92,1.24,0,0,0,0,0,0-6.31-5.38,11.32-20.9,16.74-21.72,1.03-.27,4.12-.91,3.06-2.05-.23-.25-.57-.37-.91-.39-16.41-.87-3.7-15.1,5.02-17.75,0,0,0,0,0,0,1.62.29,3.45,1.59,4.15.04.19-.43,0-.94-.41-1.16-2.97-1.61-9.97-7.08-4.98-8.76,1.83-.75,9.26,3.58,9.03.72-.05-.6-.44-1.12-.98-1.38-7.36-3.66-25.32-17.31-5.11-11.66,0,0,0,0,0,0,4.74,1.81,9.92,3.24,13.91,6.48.79.64,1.99,1.67,2.93.72,0,0,0,0,0,0,1.72-2.93-4.72-4.86-6.27-6.72-4.73-4.54-10.7-8.87-13.25-15.04,0,0,0,0,0,0,8.73.25,16.37,5.6,23.94,10.22,5.66,4.32,7.62,7.35,8.43,7.17,1.33-.3-2.21-5.38-3.01-7.23-1.51-2.31-2.52-4.86-3.6-7.39-1.26-2.14-7.46-21.69-1.4-18.34,15.25,7,20.27,32.36,23.91,31.4.46-.12.69-.64.58-1.1-2.18-8.51-6.68-16.46-11.96-23.37-21.53-23.37-20.41-2.47-12.44,15.6,0,0,0,0,0,0-7.66-3.91-15.3-9.74-24.21-9.66,0,0,0,0,0,0-8.46,1.94,4.85,11.83,6.78,15.14,0,0,0,0,0,0-3.74-.48-7.08-2.66-10.95-2.41h0c-11.61,1.42-2.02,10.52,3.1,13.73,0,0,0,0,0,0-6.56,1.83-3.8,8.09-.1,11.44,0,0,0,0,0,0-4.7,3.05-10.35,5.32-12.46,11.06-1.93,4.65.45,8,4.27,9.56,0,0,0,0,0,0-18.91,9.9-27.81,32.78,3.06,24.39,0,0,0,0,0,0-6.55,5.86-15.43,11.4-17.1,20.86-.78,4.67,3.44,8.02,7.8,6.83,1.41-.41,2.89-1.25,3.35-.41,0,0,0,0,0,0-5.65,7.15-15.05,29.79-.03,31.16,0,0,0,0,0,0-.48,6.49-2.29,13.41.57,19.71,1.64,3.71,5.93,4.38,9.09,2.43,3.28-2.13,4.69-3.71,6.72-6.32,0,0,0,0,0,0,.41,6.89-.56,24.25,10.71,19.37,0,0,0,0,0,0,4.09-2.47,5.78-6.95,9.4-9.99,0,0,0,0,0,0,3.06,4.9,2.36,20.23,11.29,16.54h0c3.45-1.81,5.04-5.74,8.22-7.82,0,0,0,0,0,0,21.62,9.49,47.98,7.8,69.06-2.57,0,0,0,0,0,0,7,8.02,24.36.05,8.35-4.79,0,0,0,0,0,0,.97-.63,1.92-1.28,2.86-1.94,0,0,0,0,0,0,11.49,8.23,24.92-2.9,7.73-6.08,0,0,0,0,0,0,.82-.72,1.62-1.45,2.41-2.2,0,0,0,0,0,0,12.67,6.16,26.53-8.88,7.31-7.9,0,0,0,0,0,0,.91-1.1,1.65-2.15,2.65-3.37,0,0,0,0,0,0ZM180.65,139.9c1.16-2.14,2.94-3.59,3.87-3.08.92.51.64,2.79-.52,4.93-1.16,2.14-2.84,3.45-3.77,2.94-.92-.51-.74-2.66.42-4.79ZM139.56,186.74s0,0,0,0c-.47-.6-.98-2.15-.42-3.55,3.12-8.16,9.09-4.62,6.12.23,0,0,0,0,0,0l-5.69,3.32ZM151.08,190.58c-.85.39-6.82,1.26-10.3-2.26,0,0,0,0,0,0,3.53-2.23,5.86-3.19,5.86-3.19,0,0,9.6,3.06,4.44,5.45ZM150.74,179.94c-5.4-8.19,4.97-18.52,4.91-3.89,0,0,0,0,0,0-1.58,1.35-3.21,2.67-4.9,3.89,0,0,0,0,0,0ZM159.9,182.92s-.07,0-.1,0c0,0,0,0,0,0-.83,0-1.7-.06-2.55-.17-.06,0-.13-.02-.19-.03-.02,0-.05,0-.07-.01-1.97-.3-3.76-.92-4.44-1.83,0,0,0,0,0,0,1.37-1.02,2.7-2.07,4.02-3.16,0,0,0,0,0,0,1.6.43,3.67.75,5.3,1.44,0,0,0,0,0,0,2.63,1.51,2.72,2.55,1.59,3.15-.76.4-2.08.6-3.55.62ZM160.76,171.31s0,0,0,0c0,0,0,0,0,0-.47-.37-.81-1.22-1-2.31,0,0,0,0,0-.01-.05-.3-.09-.62-.13-.96,0-.01,0-.02,0-.03-.01-.16-.03-.32-.04-.48,0-.02,0-.03,0-.05,0-.16-.02-.32-.02-.48,0-.02,0-.05,0-.07,0-.13,0-.27,0-.4,0-.05,0-.1,0-.16,0-.09,0-.18,0-.27,0-.1,0-.19,0-.29,0-.06,0-.12,0-.19,0-.13.01-.25.02-.38,0-.05,0-.09.01-.14.24-3.35,1.34-6.58,3.24-5.66.39.19.7.54.88.94.75,1.7.97,4.4,1.02,5.84.02.44.02.77.02.9,0,.04,0,.07,0,.07h0s-1.92,2.33-4.01,4.12c0,0,0,0,0,0ZM168.52,167.88c15.6.57-.01,8.13-6.3,4.66,0,0,0,0,0,0,1.45-1.45,4.44-4.66,4.44-4.66,0,0,1.23-.02,1.86,0ZM182.23,155.04c1.72-.08,3.01.22,2.71,1.35-.74,2.83-5.18,5.1-9.19,5.2-1.34.03-2.63-.17-3.72-.68,0,0,0,0,0,0,0,0,0,0,0,0,0,0,0,0,0,0,0,0,0,0,0,0,1.2-1.62,3.24-4.58,3.24-4.58,0,0,4.09-1.15,6.96-1.27ZM170.6,159.5c-2.11-2.79-1.63-8.03.57-11.59,1.52-2.47,2.8-2.01,3.52.81.37,1.44.59,3.93.59,3.93,0,0,0,0,0,0l-4.67,6.85s0,0,0,0Z"/><path d="M199.87,23.8c-.18-1.69-1.26-2.78-2.73-3.47-.75-.35-1.54-.59-2.41-.61-1.47-.03-2.9.11-4.34.43-2.73.61-5.39,1.43-7.94,2.58-3.24,1.46-6.46,2.96-9.51,4.82-2.26,1.38-4.59,2.67-6.81,4.11-2.57,1.67-5.08,3.44-7.59,5.21-2.56,1.82-5.13,3.64-7.61,5.56-2.65,2.05-5.23,4.2-7.82,6.34-.69.57-1.38,1.15-2.01,1.87-.21.24-.57.24-.78,0-.29-.34-.68-.78-.94-1.03-2.04-1.94-4.31-3.59-6.65-5.13-.22-.15-.45-.28-.67-.43.1-.45.14-.93.08-1.47-.27-2.42-1.02-4.67-2.37-6.67-.67-1-1.56-1.88-2.7-2.4-1.23-.56-2.3.09-2.43,1.45-.09.93-.03,1.92.18,2.84.19.82.45,1.64.73,2.5-.21-.11-.41-.22-.62-.33-.66-.34-1.33-.66-2-.98.14-.87.09-1.78-.12-2.64-.96-3.78-2.91-6.98-5.85-9.53-.47-.41-1-.77-1.56-1.05-2.29-1.15-3.89-.04-3.68,2.55.11,1.34,2.43,6.12,3.17,7.35-1.11-.37-2.23-.72-3.36-1.02-.98-.26-1.97-.51-2.97-.75.55-1.19.62-2,.6-2.77-.02-.97-.28-1.97-.63-2.87-1.46-3.79-3.97-6.77-7.26-9.05-1.51-1.04-3.19-1.75-5.09-1.62-1.55.11-2.58,1.06-2.8,2.62-.15,1.07.05,2.1.41,3.11.57,1.62,1.31,3.1,2.22,4.47.26.39.53.76.81,1.12,1.04,1.34,2.27,2.55,3.7,3.6.14.11.28.22.42.33-.28,0-.56-.02-.85-.03-1.1-.07-2.74.12-4.39.68-.05-.22-.18-.41-.35-.57-.44-.41-1.02-.75-1.59-.93-2.63-.82-5.11-.15-7.44,1.07-.85.44-1.61,1.13-2.27,1.84-1.41,1.51-1.08,3.36.87,4.06,3.05,1.09,8.44-.77,9.77-2.53.09-.13.22-.26.28-.41.13-.03.25-.07.36-.12,1.48-.62,3.02-.86,4.59-.84-1.22.81-2.21,1.9-3.14,3.03-1.1,1.33-1.75,2.87-1.64,4.66.1,1.51.73,2.23,2.3,2.52.4.07.82.08,1.23.04,1.34-.15,2.56-.63,3.73-1.31,1.79-1.05,3.2-2.51,4.41-4.15.78-1.05,1.41-2.24,1.42-3.61,1.64.48,3.27.97,4.9,1.49-1.58.51-2.82,1.55-3.82,2.93-1.16,1.59-.68,3.2,1.19,3.84.84.29,1.77.49,2.66.46,2.32-.08,4.55-.63,6.63-1.69,1.03-.52,1.79-1.23,2.32-2.05.68.31,1.37.63,2.04.95-.97.25-1.81.77-2.62,1.38-.9.68-1.4,1.58-1.13,2.74.26,1.12,1.15,1.56,2.13,1.75,2.63.51,5.17.16,7.44-1.27.42-.26.79-.56,1.11-.9,2.44,1.45,4.81,3.02,7.1,4.75.56.42,1.13.83,1.75,1.15,1.19.6,2.19-.73,2.52-.98,2.45-1.86,4.88-3.75,7.33-5.61.89-.68,1.83-1.28,2.72-1.95,1.95-1.47,3.84-3.03,5.84-4.44,3.08-2.17,6.2-4.29,9.34-6.36,1.98-1.3,5.3-3.29,7.38-4.42,2.2-1.19,4.38-2.44,6.69-3.44,2.76-1.19,5.52-2.33,8.45-3.01,1.58-.37,3.19-.4,4.78-.18,1.81.25,3.15,1.12,3.52,3.08.14.75.35,1.53.3,2.28-.11,1.61-.22,3.25-.6,4.81-.82,3.34-1.78,6.66-2.76,9.96-1.67,5.59-3.44,11.15-5.08,16.75-1.17,3.98-2.23,7.99-3.31,11.99-1.61,5.98-3.19,11.96-4.77,17.95-.14.54-.17,1.11-.2,1.66-.02.37.12.76.53.76.2,0,.46-.3.57-.52.15-.31.2-.67.28-1.01.38-1.64.79-3.28,1.13-4.94,1.38-6.61,3.11-13.14,4.8-19.68,1.73-6.68,3.71-13.28,5.83-19.84.71-2.21,1.46-4.4,2.12-6.63,1.03-3.44,2.1-6.87,2.59-10.44.17-1.24.09-2.54-.04-3.79ZM93.81,34.47c-.2.2-.31.67-.22.94.05.15.17.29.31.42-1.85,1.3-3.94,1.88-6.13,2.24-.79.13-1.52.07-2.22-.33-.67-.39-.9-1.19-.44-1.79.29-.38.66-.72,1.04-1.03,1.22-1.01,2.71-1.41,4.2-1.78,1.28-.32,2.49-.14,3.6.59.15.1.31.2.47.31-.22.12-.43.27-.61.44ZM106.2,37.81c-1.18,2.55-3.26,4.18-5.6,5.5-.78.44-1.68.7-2.62.58-.78-.1-1.28-.66-1.2-1.44.04-.41.17-.83.33-1.21,1.11-2.65,3.05-4.54,5.42-6,1.44.14,2.87.35,4.28.67-.02.68-.31,1.28-.6,1.9ZM107.19,33.61c-.87-.14-1.76-.26-2.72-.46-3.91-1.56-6.51-4.61-8.7-8.1-.63-1-1-2.13-1.17-3.31-.05-.35-.07-.71-.04-1.06.09-1.35.62-1.87,1.8-1.93.94-.04,1.81.21,2.6.67,3.71,2.17,6.63,5.12,8.46,9.08.28.6.54,1.26.59,1.93.12,1.51-.68,2.93-.82,3.18ZM120.11,41.27s-.02.02-.03.02c-.4.3-.86.56-1.32.83-1.63.99-3.5,1.5-5.4,1.48-.71,0-1.44-.06-2.12-.23-1.15-.28-1.35-1.39-.5-2.26.41-.43,2.84-2.33,4.13-2.76,1.21.43,3.14,1.11,4.33,1.61.51.22,1.02.44,1.53.66-.16.24-.38.44-.62.63ZM121.21,38.19c-1.22-.55-2.45-1.07-3.7-1.55-2.34-2.83-3.93-6.42-4.14-7.86-.01-.1-.05-.19-.06-.29-.08-.83.86-1.4,1.53-.91,0,0,0,0,.01,0,.62.46,1.27.9,1.77,1.47,1.67,1.9,3.16,3.95,4.09,6.35.35.9.68,1.82.49,2.78ZM128.36,45.96c-1.67.91-3.45,1.02-5.28.81-.56-.07-1.3-.35-1.3-.9-.05-.52.68-1,1.23-1.31,1.04-.58,1.97-1.08,3.28-1.29,1.14.59,2.27,1.2,3.39,1.83-.33.28-.76.56-1.31.86ZM130.47,43.06s-.02,0-.02-.01c-.08-.05-.16-.09-.23-.13-.87-.52-1.75-1.03-2.64-1.52-.15-.38-.32-.76-.44-1.15-.36-1.21-.73-2.42-1.02-3.64-.06-.27-.16-.66-.07-1.07.08-.33.47-.47.77-.3.19.11.5.35.86.72.18.18.37.4.57.65.1.13.2.26.3.4.6.85,1.19,2.01,1.56,3.5.18.74.31,1.57.35,2.49,0,.03,0,.05,0,.08,0,0,0,0,0,0Z"/><path class="cls-3" d="M180.23,144.69c.92.51,2.61-.81,3.77-2.94,1.16-2.14,1.45-4.42.52-4.93-.92-.51-2.71.94-3.87,3.08-1.16,2.14-1.35,4.28-.42,4.79Z"/></svg>